<?xml version="1.0" encoding="UTF-8"?>
<svg version="1.1" xmlns="http://www.w3.org/2000/svg" width="225" height="225">
<path d="M0 0 C74.25 0 148.5 0 225 0 C225 74.25 225 148.5 225 225 C150.75 225 76.5 225 0 225 C0 150.75 0 76.5 0 0 Z " fill="#040404" transform="translate(0,0)"/>
<path d="M0 0 C5.51285794 -0.34862409 11.01920348 -0.60114867 16.54052734 -0.76904297 C18.4134091 -0.83905422 20.28553613 -0.93431675 22.15576172 -1.05615234 C37.16534889 -2.00876081 37.16534889 -2.00876081 41.75131226 1.24105835 C44.87555513 4.45967352 46.98354461 8.19788871 49.02539062 12.16418457 C50.44608041 14.84025593 52.18568224 17.25737879 53.94140625 19.72265625 C55.1499401 21.50158429 56.3569778 23.28152969 57.5625 25.0625 C58.84599483 26.95206704 60.12984803 28.84139072 61.4140625 30.73046875 C62.02411133 31.62813965 62.63416016 32.52581055 63.26269531 33.45068359 C66.80991134 38.65585921 70.40091892 43.83058815 74 49 C80.54527036 42.52338632 86.64924933 35.72353932 92.4375 28.5625 C96.28721572 23.80224283 100.35037036 19.29161654 104.49609375 14.7890625 C107.89481329 11.0032813 111.0924253 7.07864278 114.28515625 3.1171875 C116 1 116 1 117 0 C119.01964199 -0.07244053 121.04167124 -0.08377188 123.0625 -0.0625 C124.16722656 -0.05347656 125.27195312 -0.04445312 126.41015625 -0.03515625 C127.26480469 -0.02355469 128.11945313 -0.01195312 129 0 C126.38611916 4.09727316 123.65303345 7.63179531 120.3125 11.1875 C116.08732631 15.75960878 112.1235268 20.47348613 108.21484375 25.31640625 C106.04367173 27.94708557 103.79758643 30.47942424 101.5 33 C97.55310182 37.33196142 93.8386551 41.81665284 90.15234375 46.37109375 C87.18823137 49.99150687 84.11260732 53.5070741 81 57 C82.38647176 60.81688534 84.15676311 63.98084526 86.4140625 67.3515625 C87.09339844 68.36863281 87.77273437 69.38570313 88.47265625 70.43359375 C89.18292969 71.48675781 89.89320313 72.53992188 90.625 73.625 C91.31207031 74.65496094 91.99914062 75.68492188 92.70703125 76.74609375 C96.69943416 82.70099114 100.81774952 88.53961995 105.05761719 94.3203125 C108.23955902 98.71008042 111.27439321 103.1975295 114.3125 107.6875 C115.612902 109.604424 116.91368667 111.52108845 118.21484375 113.4375 C118.85019043 114.37335938 119.48553711 115.30921875 120.14013672 116.2734375 C121.8743963 118.81586478 123.62225148 121.34801106 125.37890625 123.875 C125.88832764 124.60887939 126.39774902 125.34275879 126.92260742 126.09887695 C127.86647445 127.45621136 128.81310209 128.81163172 129.76293945 130.16479492 C131.57007475 132.76786779 132.99168508 134.97505523 134 138 C128.45026865 138.27328223 122.9044972 138.47210322 117.34960938 138.60424805 C115.46349857 138.65935118 113.57785319 138.7342651 111.69335938 138.82983398 C96.11783193 139.59955482 96.11783193 139.59955482 91.19067383 135.87817383 C89.10104869 133.02288452 87.55687664 130.17367171 86 127 C84.8025353 125.20638857 83.57736583 123.43094109 82.32421875 121.67578125 C81.11030166 119.88915946 79.89809193 118.10137655 78.6875 116.3125 C77.38567991 114.39565452 76.08359424 112.4789894 74.78125 110.5625 C74.14574219 109.62664062 73.51023437 108.69078125 72.85546875 107.7265625 C69.69616082 103.08404264 66.51131716 98.45917536 63.32495117 93.83520508 C61.53312029 91.23402485 59.75212873 88.6281931 58 86 C54.16054818 87.51852477 52.32508945 89.77802738 49.8125 93 C46.80880624 96.77551032 43.75707006 100.44060995 40.5 104 C37.40444804 107.39598682 34.44848793 110.86171531 31.5625 114.4375 C27.6384838 119.2876389 23.52727012 123.91687918 19.265625 128.47265625 C17.32718381 130.63502082 15.72271023 132.81645263 14.0625 135.1875 C12.11256978 137.5613281 11.29207542 137.95612775 8.19140625 138.421875 C5.42259176 138.43598361 2.75015635 138.30829155 0 138 C3.96266657 129.10463911 12.01331795 121.83174262 18.52734375 114.75390625 C21.74709519 111.16792716 24.75905176 107.43298508 27.78515625 103.68359375 C29.95632827 101.05291443 32.20241357 98.52057576 34.5 96 C40.32615907 89.60144635 45.82458496 82.93538615 51 76 C42.79456786 63.95092685 34.57952723 51.90888503 26.31054688 39.90332031 C24.49959063 37.27325048 22.69065883 34.64179123 20.88183594 32.01025391 C19.96858943 30.68168999 19.05518086 29.35323745 18.14160156 28.02490234 C15.74799188 24.54445983 13.35675603 21.06241513 10.96875 17.578125 C10.47181641 16.85367188 9.97488281 16.12921875 9.46289062 15.3828125 C8.5129679 13.99787843 7.5637103 12.61248782 6.61523438 11.2265625 C4.85416505 8.66020661 3.10021544 6.128725 1.1875 3.671875 C0 2 0 2 0 0 Z " fill="#F4F4F4" transform="translate(46,45)"/>
<path d="M0 0 C14.81943775 -2.2009066 14.81943775 -2.2009066 19.75488281 1.21435547 C23.0589641 4.6504712 25.40215256 8.73501367 27.75097656 12.85791016 C29.74152471 16.27172357 32.03975779 19.45802908 34.3125 22.6875 C35.23110127 24.02862486 36.14771976 25.37110966 37.0625 26.71484375 C40.27741489 31.41786128 43.54229806 36.08531925 46.8125 40.75 C47.69578979 42.01009888 47.69578979 42.01009888 48.59692383 43.2956543 C49.79832583 45.00907579 50.9999055 46.72237271 52.20166016 48.43554688 C55.13724982 52.62173121 58.06846351 56.81097677 61 61 C64.47541954 65.96564538 67.95131434 70.93095426 71.4296875 75.89453125 C72.57819104 77.5338079 73.72662844 79.17313089 74.875 80.8125 C75.43936768 81.61816406 76.00373535 82.42382812 76.58520508 83.25390625 C81.99651991 90.98457306 87.38189595 98.73324572 92.75927734 106.48754883 C93.71954834 107.87043091 93.71954834 107.87043091 94.69921875 109.28125 C95.26471436 110.09658203 95.83020996 110.91191406 96.4128418 111.75195312 C97.47224178 113.25248459 98.57090974 114.72603316 99.70629883 116.16992188 C101 118 101 118 101 120 C94.99218722 120.95173272 88.92305795 121.78250395 83 120 C78.45723971 116.67774097 76.02264811 111.25429061 73.38232422 106.41650391 C70.98357604 102.223143 68.12550114 98.35945773 65.3125 94.4375 C64.11900466 92.73974793 62.92764222 91.04049471 61.73828125 89.33984375 C61.12936035 88.47085449 60.52043945 87.60186523 59.89306641 86.70654297 C56.5856086 81.97782524 53.29324363 77.23862268 50 72.5 C43.25939811 62.80305056 36.49518574 53.12290767 29.71777344 43.45166016 C27.98047369 40.97213143 26.2439862 38.49203605 24.5078125 36.01171875 C23.92805664 35.18349609 23.34830078 34.35527344 22.75097656 33.50195312 C21.5938118 31.84849182 20.43690606 30.19484921 19.28027344 28.54101562 C16.19668115 24.13289219 13.10654384 19.72952869 10.0078125 15.33203125 C9.358125 14.40841797 8.7084375 13.48480469 8.0390625 12.53320312 C6.78314885 10.74801158 5.52539671 8.96411173 4.265625 7.18164062 C3.70617187 6.38564453 3.14671875 5.58964844 2.5703125 4.76953125 C2.07289551 4.06417236 1.57547852 3.35881348 1.06298828 2.63208008 C0 1 0 1 0 0 Z " fill="#060606" transform="translate(62,54)"/>
</svg>
